<svg xmlns="http://www.w3.org/2000/svg" viewBox="0 0 86.2 37.4"><defs><style>.cls-1{fill:#fff;}</style></defs><title>Asset 1</title><g id="Layer_2" data-name="Layer 2"><g id="Layer_1-2" data-name="Layer 1"><path class="cls-1" d="M0,26.7V11.3C0,3.8,3.2,0,9.6,0a12.65,12.65,0,0,1,2.8.3,5.79,5.79,0,0,1,2.1.9A5.36,5.36,0,0,1,16,2.7a6.92,6.92,0,0,1,1,1.9,7,7,0,0,1,.6,2.3,11.34,11.34,0,0,1,.3,2.5,22.62,22.62,0,0,1,.1,2.7v.3H14.8V9.5c0-.5-.1-1.2-.2-2.1a4.85,4.85,0,0,0-.5-2A5.51,5.51,0,0,0,13.2,4a3.27,3.27,0,0,0-1.5-1.1,7.32,7.32,0,0,0-2.2-.3,6.68,6.68,0,0,0-3,.6,5.51,5.51,0,0,0-2,1.7,6.71,6.71,0,0,0-1,2.3,11.15,11.15,0,0,0-.3,2.7V28a9.52,9.52,0,0,0,.3,2.5,9.49,9.49,0,0,0,.9,2.1,3.82,3.82,0,0,0,1.9,1.6,6.84,6.84,0,0,0,3.1.6,5.81,5.81,0,0,0,2.8-.6A4,4,0,0,0,14,32.6a6,6,0,0,0,.8-2.1,9,9,0,0,0,.2-2.4V22H10.5V19.5h7.7V36.8H16.8l-.9-3.5a6.09,6.09,0,0,1-2.5,3,8,8,0,0,1-4,1.1,11.15,11.15,0,0,1-2.7-.3,10.33,10.33,0,0,1-2.1-.7A5.72,5.72,0,0,1,3,35.3,7.1,7.1,0,0,1,1.8,34,5.3,5.3,0,0,1,1,32.5a14.24,14.24,0,0,1-.5-1.6c-.1-.5-.2-1-.3-1.6a8.17,8.17,0,0,1-.1-1.4A4.48,4.48,0,0,1,0,26.7Z"/><path class="cls-1" d="M23.6,36.8V.5h8.9a11.59,11.59,0,0,1,3.4.5,5.66,5.66,0,0,1,2.4,1.4,7.35,7.35,0,0,1,1.6,2.2,12.24,12.24,0,0,1,.9,2.7,13.86,13.86,0,0,1,.3,3,30.28,30.28,0,0,1-.2,3.1,9.85,9.85,0,0,1-.8,2.8,9.74,9.74,0,0,1-1.5,2.4,7.69,7.69,0,0,1-2.5,1.6,9.51,9.51,0,0,1-3.5.6H26.9V36.9H23.6v-.1Zm3.2-18.7h6a4.19,4.19,0,0,0,3.9-1.9,11.32,11.32,0,0,0,1.2-5.9,10,10,0,0,0-1.2-5.5A4.28,4.28,0,0,0,32.9,3h-6l-.1,15.1Z"/><path class="cls-1" d="M44.3,27.9V.5h3.2V28.6a7.12,7.12,0,0,0,1.4,4.7c.9,1.1,2.5,1.5,4.8,1.5q3.15,0,4.5-1.5a6.83,6.83,0,0,0,1.4-4.6V.5h3.2V27.9c0,6.3-3,9.5-9.1,9.5a14.57,14.57,0,0,1-3.8-.5,7,7,0,0,1-4.4-3.5,11.42,11.42,0,0,1-.9-2.6A8.63,8.63,0,0,1,44.3,27.9Z"/><path class="cls-1" d="M68,26.7V11.3C68,3.8,71.2,0,77.6,0a12.65,12.65,0,0,1,2.8.3,5.79,5.79,0,0,1,2.1.9A5.36,5.36,0,0,1,84,2.7a6.92,6.92,0,0,1,1,1.9,7,7,0,0,1,.6,2.3,11.34,11.34,0,0,1,.3,2.5,22.62,22.62,0,0,1,.1,2.7v.3H82.8V9.5c0-.5-.1-1.2-.2-2.1a4.85,4.85,0,0,0-.5-2A5.51,5.51,0,0,0,81.2,4a3.27,3.27,0,0,0-1.5-1.1,7.32,7.32,0,0,0-2.2-.3,6.68,6.68,0,0,0-3,.6,5.51,5.51,0,0,0-2,1.7,6.71,6.71,0,0,0-1,2.3,11.15,11.15,0,0,0-.3,2.7V28a9.52,9.52,0,0,0,.3,2.5,9.49,9.49,0,0,0,.9,2.1,3.82,3.82,0,0,0,1.9,1.6,6.84,6.84,0,0,0,3.1.6,5.81,5.81,0,0,0,2.8-.6A4,4,0,0,0,82,32.6a6,6,0,0,0,.8-2.1,9,9,0,0,0,.2-2.4V22H78.5V19.5h7.7V36.8H84.8l-.9-3.5a6.09,6.09,0,0,1-2.5,3,8,8,0,0,1-4,1.1,11.15,11.15,0,0,1-2.7-.3,10.33,10.33,0,0,1-2.1-.7A5.72,5.72,0,0,1,71,35.3,7.1,7.1,0,0,1,69.8,34a5.3,5.3,0,0,1-.8-1.5,14.24,14.24,0,0,1-.5-1.6c-.1-.5-.2-1-.3-1.6a8.17,8.17,0,0,1-.1-1.4A4.48,4.48,0,0,1,68,26.7Z"/></g></g></svg>