<svg xmlns="http://www.w3.org/2000/svg" viewBox="0 0 803.26 379.66" fill="#eee">
<title>kwjs-logo</title>
<g id="Layer_2" data-name="Layer 2"><g id="Layer_1-2" data-name="Layer 1">
<path d="M101.49,114.23H143.6V191h.57l49.57-76.77h46.4l-59,81.64,62.17,90.24H196.89l-52.72-83.36h-.57v83.36H101.49Z"/><path d="M264.5,114.23h44.11l34.67,81.07,20.91-53.86L353.3,114.23h43.55L431.22,195l31.51-80.78h43.84L435,291.84h-5.73l-42.4-99.12-41,99.12h-5.44Z"/><path d="M550.85,252.43c1.08,6.65,3.71,10.82,11,10.82,7.11,0,12.06-3.09,12.06-14.37V188.45h22.41V252.9c0,19.47-15.31,31.37-33.38,31.37-19.32,0-34-11.59-34-31.07Z"/><path d="M641.55,254a9.65,9.65,0,0,0,9.57,9.73c5.72,0,9.28-3.24,9.28-8,0-7-9.12-9-16.69-11.59-15.61-5.57-24.27-12.83-24.27-28.75,0-16.38,14.07-30,31.53-30,20.56,0,30.29,13.13,31.53,30.29H661.17c0-5.26-3.24-9.59-9.58-9.59-4.94,0-9.74,2.94-9.74,9,0,6.95,8.5,8.19,16.39,10.51,16.53,4.94,24.26,14.22,24.26,28.75,0,16.38-13.91,30-31.38,30-20.24,0-31.68-13.6-31.68-30.29Z"/><path d="M803.26,379.66H0V0H688L803.26,125.58ZM33.91,345.74H769.34v-207L673.07,33.91H33.91Z"/><path d="M500.15,262.17c6.65,0,11.13,4,11.13,10.66s-4.48,10.67-11.13,10.67-11.13-4-11.13-10.67S493.51,262.17,500.15,262.17Z"/><polygon points="647.62 155.82 647.62 32.91 681.53 32.91 681.53 121.86 779.78 121.73 779.82 155.64 647.62 155.82"/></g></g></svg>
